<svg width="35" height="34" viewBox="0 0 35 34" fill="none" xmlns="http://www.w3.org/2000/svg">
<path d="M6.39079 0C2.85057 0 0 2.70629 0 6.06731V27.1612C0 30.5222 2.85057 33.2285 6.39079 33.2285H18.433V20.2382H14.8149V15.5613H18.433V11.5656C18.433 8.42633 20.5708 5.54397 25.4953 5.54397C27.4892 5.54397 28.9636 5.72569 28.9636 5.72569L28.8477 10.0932C28.8477 10.0932 27.344 10.0797 25.7031 10.0797C23.9273 10.0797 23.6425 10.8565 23.6425 12.1461V15.5613H28.9888L28.7558 20.2382H23.6425V33.2285H28.6092C32.1494 33.2285 35 30.5222 35 27.1612V6.06735C35 2.70632 32.1494 3.32284e-05 28.6092 3.32284e-05H6.39076L6.39079 0Z" fill="black"/>
</svg>
