<svg width="43" height="42" viewBox="0 0 43 42" fill="none" xmlns="http://www.w3.org/2000/svg">
<g filter="url(#filter0_d_515_172)">
<path d="M21.5 0C16.7509 0 16.1538 0.0207678 14.2878 0.0996855C12.4219 0.182757 11.1509 0.461046 10.0375 0.872248C8.86958 1.28931 7.8117 1.94351 6.93781 2.78912C6.04767 3.6192 5.35867 4.62341 4.91875 5.73192C4.48562 6.78692 4.19031 7.99561 4.105 9.76087C4.02188 11.5365 4 12.1014 4 16.6163C4 21.1271 4.02188 21.692 4.105 23.4635C4.1925 25.2329 4.48562 26.4395 4.91875 27.4966C5.36719 28.589 5.96438 29.5152 6.93781 30.4394C7.90906 31.3636 8.88469 31.9326 10.0353 32.3563C11.1509 32.7675 12.4197 33.0478 14.2834 33.1288C16.1516 33.2077 16.7466 33.2285 21.5 33.2285C26.2534 33.2285 26.8463 33.2077 28.7144 33.1288C30.5759 33.0457 31.8512 32.7675 32.9647 32.3563C34.1319 31.939 35.189 31.2848 36.0622 30.4394C37.0356 29.5152 37.6328 28.589 38.0812 27.4966C38.5122 26.4395 38.8075 25.2329 38.895 23.4635C38.9781 21.692 39 21.1271 39 16.6143C39 12.1014 38.9781 11.5365 38.895 9.76295C38.8075 7.99561 38.5122 6.78692 38.0812 5.73192C37.6414 4.62338 36.9524 3.61916 36.0622 2.78912C35.1886 1.94319 34.1306 1.28895 32.9625 0.872248C31.8469 0.461046 30.5737 0.18068 28.7122 0.0996855C26.8441 0.0207678 26.2513 0 21.4956 0H21.5022H21.5ZM19.9316 2.99472H21.5022C26.1747 2.99472 26.7281 3.00926 28.5722 3.09025C30.2784 3.16294 31.2059 3.435 31.8228 3.66137C32.6388 3.9625 33.2228 4.32386 33.8353 4.90536C34.4478 5.48686 34.8263 6.03928 35.1434 6.816C35.3841 7.39957 35.6684 8.28013 35.745 9.90002C35.8303 11.6507 35.8478 12.1762 35.8478 16.6101C35.8478 21.044 35.8303 21.5715 35.745 23.3223C35.6684 24.9421 35.3819 25.8206 35.1434 26.4063C34.8629 27.1277 34.4151 27.7799 33.8331 28.3148C33.2206 28.8963 32.6388 29.2556 31.8206 29.5568C31.2081 29.7852 30.2806 30.0552 28.5722 30.1299C26.7281 30.2089 26.1747 30.2276 21.5022 30.2276C16.8297 30.2276 16.2741 30.2089 14.43 30.1299C12.7238 30.0552 11.7984 29.7852 11.1816 29.5568C10.4214 29.2908 9.73371 28.8664 9.16906 28.3148C8.58664 27.7791 8.13814 27.1262 7.85656 26.4042C7.61812 25.8206 7.33156 24.9401 7.255 23.3202C7.17188 21.5695 7.15438 21.044 7.15438 16.6059C7.15438 12.1699 7.17188 11.6466 7.255 9.89586C7.33375 8.27598 7.61813 7.39542 7.85875 6.80977C8.17594 6.03513 8.55656 5.48063 9.16906 4.89913C9.78156 4.31763 10.3634 3.95835 11.1816 3.65721C11.7984 3.42877 12.7238 3.15879 14.43 3.08402C16.0444 3.01341 16.67 2.99264 19.9316 2.99057V2.99472ZM30.8428 5.75269C30.567 5.75269 30.294 5.80425 30.0392 5.90445C29.7844 6.00464 29.5529 6.1515 29.3579 6.33663C29.1629 6.52176 29.0082 6.74155 28.9027 6.98344C28.7971 7.22532 28.7428 7.48458 28.7428 7.7464C28.7428 8.00821 28.7971 8.26747 28.9027 8.50936C29.0082 8.75124 29.1629 8.97103 29.3579 9.15616C29.5529 9.3413 29.7844 9.48815 30.0392 9.58834C30.294 9.68854 30.567 9.74011 30.8428 9.74011C31.3998 9.74011 31.9339 9.53006 32.3277 9.15616C32.7216 8.78227 32.9428 8.27516 32.9428 7.7464C32.9428 7.21763 32.7216 6.71052 32.3277 6.33663C31.9339 5.96274 31.3998 5.75269 30.8428 5.75269ZM21.5022 8.08283C20.3102 8.06518 19.1263 8.27283 18.0196 8.6937C16.9129 9.11457 15.9055 9.74025 15.056 10.5343C14.2064 11.3284 13.5317 12.275 13.0712 13.3189C12.6107 14.3629 12.3735 15.4835 12.3735 16.6153C12.3735 17.7471 12.6107 18.8677 13.0712 19.9116C13.5317 20.9556 14.2064 21.9022 15.056 22.6963C15.9055 23.4903 16.9129 24.116 18.0196 24.5369C19.1263 24.9578 20.3102 25.1654 21.5022 25.1478C23.8615 25.1128 26.1117 24.1985 27.7671 22.6021C29.4226 21.0058 30.3504 18.8555 30.3504 16.6153C30.3504 14.3751 29.4226 12.2248 27.7671 10.6284C26.1117 9.0321 23.8615 8.11778 21.5022 8.08283ZM21.5022 11.0755C23.0495 11.0755 24.5334 11.659 25.6275 12.6977C26.7216 13.7365 27.3363 15.1453 27.3363 16.6143C27.3363 18.0832 26.7216 19.492 25.6275 20.5308C24.5334 21.5695 23.0495 22.153 21.5022 22.153C19.9549 22.153 18.471 21.5695 17.3769 20.5308C16.2828 19.492 15.6681 18.0832 15.6681 16.6143C15.6681 15.1453 16.2828 13.7365 17.3769 12.6977C18.471 11.659 19.9549 11.0755 21.5022 11.0755Z" fill="black"/>
</g>
<defs>
<filter id="filter0_d_515_172" x="0" y="0" width="43" height="41.2285" filterUnits="userSpaceOnUse" color-interpolation-filters="sRGB">
<feFlood flood-opacity="0" result="BackgroundImageFix"/>
<feColorMatrix in="SourceAlpha" type="matrix" values="0 0 0 0 0 0 0 0 0 0 0 0 0 0 0 0 0 0 127 0" result="hardAlpha"/>
<feOffset dy="4"/>
<feGaussianBlur stdDeviation="2"/>
<feComposite in2="hardAlpha" operator="out"/>
<feColorMatrix type="matrix" values="0 0 0 0 0 0 0 0 0 0 0 0 0 0 0 0 0 0 0.25 0"/>
<feBlend mode="normal" in2="BackgroundImageFix" result="effect1_dropShadow_515_172"/>
<feBlend mode="normal" in="SourceGraphic" in2="effect1_dropShadow_515_172" result="shape"/>
</filter>
</defs>
</svg>
