<svg width="65" height="34" viewBox="0 0 65 34" fill="none" xmlns="http://www.w3.org/2000/svg">
<path d="M20.7297 4.5567H2.10811C0.943832 4.5567 0 5.49829 0 6.65979V27.6907C0 28.8522 0.943832 29.7938 2.10811 29.7938H20.7297C21.894 29.7938 22.8378 28.8522 22.8378 27.6907V6.65979C22.8378 5.49829 21.894 4.5567 20.7297 4.5567Z" fill="#001F42"/>
<path d="M3.07422 27.3399V6.94629H11.8979C13.4151 6.94629 14.7427 7.22179 15.8806 7.77277C17.0185 8.32378 17.9035 9.1171 18.5357 10.1527C19.1678 11.1883 19.4839 12.4297 19.4839 13.8769C19.4839 15.3374 19.1579 16.5689 18.5057 17.5713C17.8602 18.5737 16.9519 19.3305 15.7808 19.8417C14.6163 20.3528 13.2554 20.6084 11.6983 20.6084H6.42804V16.3066H10.5803C11.2325 16.3066 11.7881 16.227 12.2473 16.0676C12.7131 15.9017 13.0691 15.6395 13.3153 15.281C13.5682 14.9225 13.6946 14.4545 13.6946 13.8769C13.6946 13.2927 13.5682 12.8181 13.3153 12.453C13.0691 12.0812 12.7131 11.809 12.2473 11.6364C11.7881 11.4572 11.2325 11.3676 10.5803 11.3676H8.62399V27.3399H3.07422ZM15.0521 17.9796L20.1627 27.3399H14.1338L9.143 17.9796H15.0521Z" fill="white"/>
<path d="M35.5081 14.1802C35.5081 15.3154 35.2868 16.273 34.8443 17.053C34.4017 17.8297 33.8045 18.4189 33.0526 18.8205C32.3006 19.2188 31.4622 19.418 30.5372 19.418C29.6056 19.418 28.7638 19.2172 28.0119 18.8156C27.2633 18.4106 26.6677 17.8198 26.2252 17.0431C25.786 16.263 25.5664 15.3087 25.5664 14.1802C25.5664 13.045 25.786 12.089 26.2252 11.3123C26.6677 10.5323 27.2633 9.94314 28.0119 9.54481C28.7638 9.14319 29.6056 8.94238 30.5372 8.94238C31.4622 8.94238 32.3006 9.14319 33.0526 9.54481C33.8045 9.94314 34.4017 10.5323 34.8443 11.3123C35.2868 12.089 35.5081 13.045 35.5081 14.1802ZM32.6533 14.1802C32.6533 13.5694 32.5718 13.0549 32.4088 12.6367C32.249 12.2152 32.0112 11.8965 31.6951 11.6808C31.3823 11.4617 30.9964 11.3522 30.5372 11.3522C30.0781 11.3522 29.6905 11.4617 29.3744 11.6808C29.0616 11.8965 28.8237 12.2152 28.6607 12.6367C28.501 13.0549 28.4211 13.5694 28.4211 14.1802C28.4211 14.7909 28.501 15.3071 28.6607 15.7286C28.8237 16.1468 29.0616 16.4655 29.3744 16.6846C29.6905 16.9003 30.0781 17.0082 30.5372 17.0082C30.9964 17.0082 31.3823 16.9003 31.6951 16.6846C32.0112 16.4655 32.249 16.1468 32.4088 15.7286C32.5718 15.3071 32.6533 14.7909 32.6533 14.1802ZM38.9419 9.08178L41.0377 16.2713H41.1178L43.2139 9.08178H46.348L42.9743 19.2786H39.1811L35.8075 9.08178H38.9419ZM47.3325 19.2786V9.08178H54.6989V11.3123H50.1075V13.0649H54.3195V15.2955H50.1075V17.0481H54.6789V19.2786H47.3325ZM56.0752 19.2786V9.08178H60.4871C61.2456 9.08178 61.9093 9.21954 62.4782 9.49504C63.0474 9.77055 63.4897 10.1672 63.8059 10.685C64.1218 11.2028 64.2799 11.8235 64.2799 12.5471C64.2799 13.2773 64.1169 13.8931 63.7908 14.3943C63.4679 14.8955 63.014 15.2739 62.4283 15.5295C61.8461 15.785 61.1655 15.9128 60.3869 15.9128H57.7518V13.762H59.8283C60.1543 13.762 60.4319 13.7221 60.6617 13.6425C60.8946 13.5595 61.0724 13.4284 61.1958 13.2491C61.3219 13.0699 61.3851 12.8359 61.3851 12.5471C61.3851 12.255 61.3219 12.0177 61.1958 11.8351C61.0724 11.6492 60.8946 11.5131 60.6617 11.4268C60.4319 11.3372 60.1543 11.2924 59.8283 11.2924H58.8498V19.2786H56.0752ZM62.0639 14.5984L64.6193 19.2786H61.6047L59.1094 14.5984H62.0639Z" fill="white"/>
<path d="M29.1895 25.6131C29.1333 25.6131 29.0855 25.6018 29.0461 25.5794C29.0068 25.557 28.9871 25.5149 28.9871 25.4532C28.9871 25.3747 29.0068 25.285 29.0461 25.184C29.0855 25.0831 29.1304 24.9849 29.181 24.8896C29.2316 24.7887 29.2766 24.7073 29.316 24.6456C29.1192 24.8531 28.914 25.0494 28.7004 25.2345C28.5936 25.3242 28.4755 25.4084 28.3462 25.4869C28.2169 25.5654 28.0792 25.6046 27.933 25.6046C27.8768 25.6046 27.8375 25.5878 27.815 25.5542C27.7925 25.5149 27.7812 25.47 27.7812 25.4196C27.7812 25.3915 27.7841 25.3719 27.7897 25.3607C27.8178 25.142 27.8881 24.9148 28.0005 24.6793C28.1129 24.4437 28.2507 24.2222 28.4137 24.0147C28.5767 23.8072 28.7425 23.639 28.9112 23.51C29.1023 23.3642 29.3131 23.2912 29.5436 23.2912H30.5134C30.5415 23.2912 30.5555 23.3025 30.5555 23.3249C30.5555 23.3698 30.5302 23.3922 30.4796 23.3922C30.4234 23.3922 30.3672 23.4286 30.311 23.5016C30.2548 23.5689 30.2126 23.6249 30.1845 23.6698C30.1451 23.7315 30.0833 23.8352 29.999 23.9811C29.9147 24.1269 29.8275 24.2867 29.7376 24.4606C29.6533 24.6288 29.5802 24.7858 29.5183 24.9317C29.4565 25.0775 29.4256 25.184 29.4256 25.2513C29.4256 25.3298 29.4649 25.3691 29.5436 25.3691C29.628 25.3691 29.7235 25.3298 29.8303 25.2513C29.9371 25.1728 30.044 25.0775 30.1508 24.9653C30.2632 24.8475 30.3644 24.7326 30.4543 24.6204C30.5499 24.5026 30.6258 24.4101 30.682 24.3428C30.7157 24.3764 30.7129 24.4241 30.6736 24.4858C30.6398 24.5419 30.6089 24.5868 30.5808 24.6204C30.4684 24.7662 30.3391 24.9176 30.1929 25.0747C30.0468 25.2261 29.8865 25.3551 29.7123 25.4616C29.5436 25.5626 29.3694 25.6131 29.1895 25.6131ZM28.2788 25.3186C28.3462 25.3186 28.439 25.271 28.557 25.1756C28.6807 25.0747 28.8128 24.9513 28.9534 24.8055C29.0939 24.6541 29.226 24.497 29.3497 24.3344C29.4734 24.1661 29.5745 24.0147 29.6533 23.8801C29.7376 23.7399 29.7797 23.6334 29.7797 23.5604C29.7797 23.4988 29.7601 23.4567 29.7207 23.4343C29.687 23.4118 29.642 23.4006 29.5858 23.4006C29.4958 23.4006 29.3975 23.4343 29.2907 23.5016C29.1895 23.5632 29.108 23.6249 29.0461 23.6866C28.9787 23.7483 28.8971 23.8465 28.8016 23.9811C28.7116 24.1101 28.6217 24.2531 28.5317 24.4101C28.4418 24.5671 28.3659 24.7185 28.3041 24.8644C28.2422 25.0102 28.2113 25.1279 28.2113 25.2177C28.2113 25.285 28.2338 25.3186 28.2788 25.3186ZM30.8755 25.6635C30.8024 25.6635 30.7153 25.6495 30.6141 25.6215C30.5129 25.599 30.4623 25.5374 30.4623 25.4364C30.4623 25.3971 30.4707 25.3523 30.4876 25.3018C30.5045 25.2513 30.5213 25.2065 30.5382 25.1672C30.5944 25.0214 30.6534 24.8728 30.7153 24.7214C30.7771 24.5699 30.8418 24.4157 30.9092 24.2587C30.8361 24.3428 30.7659 24.4213 30.6984 24.4942C30.6366 24.5615 30.5916 24.612 30.5635 24.6456C30.5466 24.6681 30.5326 24.6793 30.5213 24.6793C30.5101 24.6793 30.5045 24.6653 30.5045 24.6372C30.5045 24.5924 30.5185 24.5503 30.5466 24.511C30.6253 24.4101 30.7153 24.3035 30.8165 24.1914C30.9177 24.0792 31.016 23.9614 31.1116 23.8381C31.3477 23.3445 31.6119 22.8678 31.9043 22.4079C32.1966 21.9425 32.5254 21.5303 32.8908 21.1713C33.0033 21.0648 33.1298 20.9554 33.2703 20.8432C33.4108 20.7311 33.5598 20.6357 33.7172 20.5572C33.8803 20.4787 34.0405 20.4395 34.1979 20.4395C34.2822 20.4395 34.3581 20.4619 34.4255 20.5068C34.4986 20.5516 34.538 20.6217 34.5436 20.7171V20.961C34.5436 20.9835 34.5267 20.9947 34.493 20.9947C34.4761 20.9947 34.4677 20.9891 34.4677 20.9778C34.4677 20.8881 34.4284 20.8292 34.3497 20.8012C34.271 20.7675 34.1923 20.7507 34.1136 20.7507C33.8044 20.7507 33.5261 20.832 33.2787 20.9947C33.0314 21.1517 32.8121 21.3592 32.621 21.6172C32.4299 21.8696 32.2584 22.15 32.1066 22.4584C31.9548 22.7613 31.8171 23.0613 31.6934 23.3585C31.5754 23.6502 31.463 23.911 31.3561 24.1409C31.3561 24.1409 31.3561 24.1465 31.3561 24.1577C31.3561 24.1689 31.359 24.1745 31.3646 24.1745C31.3702 24.1745 31.4152 24.1325 31.4995 24.0484C31.5894 23.9586 31.6991 23.8549 31.8284 23.7371C31.9633 23.6193 32.1038 23.5184 32.25 23.4343C32.3961 23.3445 32.5311 23.2997 32.6547 23.2997C32.7166 23.2997 32.7559 23.3221 32.7728 23.367C32.7897 23.4062 32.7981 23.4511 32.7981 23.5016V23.5773C32.77 23.7848 32.6969 24.0091 32.5788 24.2503C32.4664 24.4914 32.3203 24.7214 32.1404 24.9401C31.9661 25.1532 31.7693 25.327 31.5501 25.4616C31.3365 25.5962 31.1116 25.6635 30.8755 25.6635ZM31.0104 25.5205C31.1004 25.5205 31.1959 25.4869 31.2971 25.4196C31.4039 25.3467 31.4854 25.2822 31.5417 25.2261C31.6091 25.1644 31.6906 25.0691 31.7862 24.9401C31.8818 24.8055 31.9745 24.6597 32.0645 24.5026C32.1544 24.3456 32.2303 24.1942 32.2921 24.0484C32.354 23.9025 32.3849 23.7848 32.3849 23.695C32.3849 23.667 32.3793 23.6418 32.368 23.6193C32.3568 23.5969 32.3371 23.5857 32.309 23.5857C32.2584 23.5857 32.191 23.6165 32.1066 23.6782C32.0279 23.7399 31.9408 23.8156 31.8452 23.9053C31.7553 23.9895 31.671 24.0736 31.5923 24.1577C31.5192 24.2362 31.4658 24.2951 31.432 24.3344C31.3702 24.4017 31.2915 24.4998 31.1959 24.6288C31.1004 24.7578 31.0132 24.8896 30.9345 25.0242C30.8614 25.1532 30.8249 25.2625 30.8249 25.3523C30.8249 25.4644 30.8867 25.5205 31.0104 25.5205ZM32.9208 25.6046C32.8309 25.6046 32.7494 25.5878 32.6763 25.5542C32.6088 25.5149 32.5751 25.4336 32.5751 25.3102C32.5751 25.1139 32.6257 24.9176 32.7269 24.7214C32.8281 24.5195 32.9321 24.3428 33.0389 24.1914C33.1344 24.0624 33.2413 23.9418 33.3593 23.8296C33.483 23.7119 33.6151 23.6109 33.7556 23.5268C33.8456 23.4707 33.9664 23.4118 34.1182 23.3501C34.2756 23.2828 34.4077 23.2492 34.5145 23.2492C34.6045 23.2492 34.6832 23.2744 34.7507 23.3249C34.8181 23.3698 34.8518 23.4539 34.8518 23.5773C34.8518 23.7679 34.8013 23.9642 34.7001 24.1661C34.6045 24.3624 34.5033 24.5363 34.3965 24.6877C34.3459 24.755 34.2953 24.8195 34.2447 24.8812C34.1941 24.9373 34.1379 24.9962 34.0761 25.0578C34.2841 25.0578 34.4752 24.999 34.6495 24.8812C34.8237 24.7578 34.9755 24.6092 35.1048 24.4353L35.1217 24.4185C35.1385 24.4185 35.147 24.4353 35.147 24.469C35.147 24.5082 35.1357 24.5447 35.1133 24.5783C35.0008 24.7354 34.8603 24.8756 34.6916 24.999C34.523 25.1167 34.3318 25.1756 34.1182 25.1756C34.0957 25.1756 34.0733 25.1756 34.0508 25.1756C34.0283 25.1756 34.0058 25.1728 33.9833 25.1672C33.6685 25.4588 33.3143 25.6046 32.9208 25.6046ZM33.1401 25.4616C33.2188 25.4616 33.3031 25.4336 33.393 25.3775C33.4886 25.3214 33.5617 25.2682 33.6123 25.2177C33.7078 25.1223 33.795 25.0214 33.8737 24.9148C33.9524 24.8027 34.0255 24.6905 34.0929 24.5783C34.1716 24.4437 34.2503 24.2839 34.329 24.0988C34.4077 23.9138 34.4471 23.7399 34.4471 23.5773C34.4471 23.4483 34.4021 23.3838 34.3122 23.3838C34.2391 23.3838 34.1491 23.4146 34.0423 23.4763C33.9411 23.538 33.8653 23.5941 33.8147 23.6446C33.6235 23.8409 33.4633 24.054 33.334 24.2839C33.2609 24.4129 33.1822 24.5643 33.0979 24.7382C33.0136 24.912 32.9714 25.0719 32.9714 25.2177C32.9714 25.2401 32.9714 25.2625 32.9714 25.285C32.977 25.3018 32.9827 25.3214 32.9883 25.3439C33.0108 25.4224 33.0614 25.4616 33.1401 25.4616ZM35.7091 25.6383C35.6304 25.6383 35.563 25.6103 35.5068 25.5542C35.4505 25.4981 35.4224 25.3999 35.4224 25.2597C35.4224 25.1364 35.4309 24.9905 35.4477 24.8223C35.4702 24.6541 35.5011 24.483 35.5405 24.3091C35.5798 24.1297 35.6248 23.9727 35.6754 23.8381C35.5798 23.9783 35.473 24.1241 35.355 24.2755C35.2369 24.4213 35.1385 24.5447 35.0597 24.6456C35.0428 24.6681 35.0288 24.6793 35.0175 24.6793C35.0063 24.6793 35.0007 24.6653 35.0007 24.6372C35.0007 24.5924 35.0147 24.5503 35.0428 24.511C35.161 24.3484 35.2931 24.1633 35.4393 23.9558C35.5911 23.7483 35.7204 23.5604 35.8272 23.3922C35.889 23.381 35.9621 23.3642 36.0464 23.3417C36.1364 23.3193 36.201 23.2884 36.2404 23.2492C36.2685 23.2324 36.2854 23.2239 36.291 23.2239C36.3078 23.2239 36.3163 23.2352 36.3163 23.2576C36.3163 23.2744 36.3078 23.294 36.291 23.3165C36.2404 23.3894 36.1842 23.5016 36.1223 23.653C36.0661 23.8044 36.0071 23.9726 35.9453 24.1577C35.889 24.3428 35.8413 24.5251 35.8019 24.7045C35.7682 24.8784 35.7513 25.027 35.7513 25.1504C35.7513 25.2401 35.7654 25.3046 35.7935 25.3439C35.8216 25.3775 35.8581 25.3943 35.9031 25.3943C35.9649 25.3943 36.038 25.3635 36.1223 25.3018C36.2123 25.2401 36.2882 25.1756 36.35 25.1083C36.4287 25.0242 36.5158 24.912 36.6114 24.7718C36.7126 24.6316 36.8054 24.483 36.8897 24.326C36.9796 24.1689 37.0471 24.0259 37.0921 23.8969C37.1258 23.8072 37.1483 23.7315 37.1595 23.6698C37.1708 23.6025 37.1764 23.5492 37.1764 23.51C37.1764 23.4427 37.168 23.395 37.1511 23.367C37.1342 23.3389 37.1202 23.3221 37.1089 23.3165C37.0752 23.3053 37.0583 23.2912 37.0583 23.2744C37.0583 23.2632 37.0696 23.2548 37.0921 23.2492C37.1145 23.238 37.137 23.238 37.1595 23.2492C37.2326 23.2716 37.3057 23.3053 37.3788 23.3501C37.4518 23.3894 37.4884 23.4679 37.4884 23.5857C37.4884 23.6137 37.4856 23.6474 37.48 23.6866C37.4743 23.7203 37.4631 23.7595 37.4462 23.8044C37.4125 23.8941 37.3422 24.0203 37.2354 24.183C37.1342 24.3456 37.0162 24.5166 36.8813 24.6961C36.7463 24.8756 36.6114 25.0382 36.4765 25.184C36.3416 25.3298 36.2235 25.4336 36.1223 25.4953C36.0549 25.5345 35.9846 25.5682 35.9115 25.5962C35.8384 25.6243 35.771 25.6383 35.7091 25.6383ZM37.9768 25.6551C37.7463 25.6551 37.5861 25.6103 37.4961 25.5205C37.4062 25.4308 37.3612 25.3214 37.3612 25.1924C37.3612 25.0298 37.4034 24.8559 37.4877 24.6709C37.5776 24.4858 37.662 24.3288 37.7407 24.1998C37.8306 24.0652 37.9515 23.925 38.1033 23.7792C38.255 23.6333 38.4209 23.51 38.6008 23.409C38.7807 23.3081 38.9549 23.2576 39.1236 23.2576C39.2697 23.2576 39.3709 23.2941 39.4271 23.367C39.4834 23.4343 39.5115 23.5156 39.5115 23.6109C39.5115 23.7848 39.4581 23.9278 39.3513 24.0399C39.2501 24.1521 39.1236 24.2446 38.9718 24.3176C38.82 24.3849 38.6738 24.4409 38.5333 24.4858C38.449 24.5082 38.3506 24.5307 38.2382 24.5531C38.1257 24.5755 38.0189 24.5868 37.9177 24.5868C37.8784 24.6877 37.8475 24.7858 37.825 24.8812C37.8025 24.9765 37.7913 25.0635 37.7913 25.142C37.7913 25.2373 37.8137 25.3158 37.8587 25.3775C37.9093 25.4392 37.9908 25.4701 38.1033 25.4701C38.1482 25.4701 38.2016 25.4644 38.2635 25.4532C38.3253 25.442 38.3928 25.4252 38.4658 25.4028C38.6345 25.3467 38.8003 25.2569 38.9634 25.1336C39.1264 25.0102 39.2754 24.8784 39.4103 24.7382C39.5508 24.5924 39.6576 24.4718 39.7307 24.3764C39.7476 24.3933 39.756 24.4129 39.756 24.4353C39.756 24.4634 39.7363 24.5082 39.697 24.5699C39.5845 24.727 39.4384 24.8896 39.2585 25.0578C39.0786 25.2261 38.879 25.3691 38.6598 25.4869C38.4405 25.599 38.2129 25.6551 37.9768 25.6551ZM37.9852 24.4185C38.0583 24.4241 38.1398 24.4241 38.2297 24.4185C38.3253 24.4073 38.4181 24.3877 38.508 24.3596C38.7385 24.2923 38.9043 24.1858 39.0055 24.0399C39.1123 23.8885 39.1657 23.7539 39.1657 23.6362C39.1657 23.5689 39.1517 23.5128 39.1236 23.4679C39.0955 23.423 39.0505 23.4006 38.9887 23.4006C38.8256 23.4006 38.6795 23.4623 38.5502 23.5857C38.4209 23.7035 38.3084 23.8409 38.2129 23.9979C38.1173 24.1549 38.0414 24.2951 37.9852 24.4185ZM46.2321 26.5216C46.0691 26.5216 45.9004 26.4627 45.7262 26.3449C45.5575 26.2328 45.3804 26.0477 45.1949 25.7897C45.1218 25.6832 45.0431 25.5626 44.9588 25.428C44.8801 25.2934 44.8014 25.156 44.7227 25.0158C44.6328 25.1055 44.54 25.1924 44.4444 25.2766C44.3489 25.3551 44.2336 25.4364 44.0987 25.5205C43.8682 25.6663 43.6462 25.7701 43.4325 25.8318C43.2189 25.8991 43.0165 25.9327 42.8254 25.9327C42.6287 25.9327 42.4488 25.8991 42.2857 25.8318C42.1283 25.7645 41.999 25.6748 41.8978 25.5626C41.7461 25.3943 41.6702 25.1981 41.6702 24.9737C41.6702 24.7662 41.7236 24.5755 41.8304 24.4017C41.9428 24.2278 42.0721 24.0764 42.2183 23.9474C42.4488 23.7455 42.7017 23.5745 42.9772 23.4343C43.2527 23.2884 43.5197 23.1398 43.7783 22.9884L43.7867 22.98C43.7249 22.7837 43.694 22.5958 43.694 22.4164C43.694 22.3659 43.6968 22.3154 43.7024 22.2649C43.7136 22.2089 43.7221 22.1556 43.7277 22.1051C43.7727 21.9032 43.8598 21.7574 43.9891 21.6677C44.124 21.5723 44.2589 21.5246 44.3938 21.5246C44.5231 21.5246 44.6328 21.5611 44.7227 21.634C44.8183 21.7069 44.8661 21.8079 44.8661 21.9369C44.8661 22.0546 44.8211 22.1752 44.7311 22.2986C44.6412 22.422 44.5344 22.5369 44.4107 22.6435C44.2927 22.7501 44.1802 22.8398 44.0734 22.9127C44.1184 23.0192 44.1802 23.1595 44.2589 23.3333C44.3433 23.5016 44.4304 23.6754 44.5203 23.8549H45.6503C45.729 23.8549 45.8077 23.8549 45.8864 23.8549C45.9707 23.8493 46.0326 23.8296 46.0719 23.796C46.0831 23.7848 46.0944 23.782 46.1056 23.7876C46.1169 23.7932 46.1169 23.8072 46.1056 23.8296L45.9538 24.0568C45.937 24.096 45.9033 24.1157 45.8527 24.1157C45.8358 24.1157 45.8161 24.1157 45.7936 24.1157C45.7711 24.1157 45.743 24.1129 45.7093 24.1072C45.6418 24.096 45.5688 24.0876 45.4901 24.082C45.417 24.0708 45.3407 24.0624 45.2624 24.0568C45.2399 24.1577 45.2034 24.2671 45.1528 24.3849C45.1022 24.5026 45.046 24.6092 44.9841 24.7045C45.0853 24.8784 45.1865 25.0466 45.2877 25.2093C45.3889 25.3663 45.4816 25.5009 45.566 25.6131C45.7346 25.8262 45.892 25.9776 46.0382 26.0673C46.1843 26.1571 46.3193 26.2019 46.4429 26.2019C46.6341 26.2019 46.8055 26.129 46.9573 25.9832C47.1147 25.843 47.2553 25.6916 47.3789 25.5289C47.3958 25.5065 47.4127 25.4953 47.4295 25.4953C47.4576 25.4953 47.4717 25.5121 47.4717 25.5458C47.4717 25.5794 47.4604 25.6075 47.438 25.6299C47.2412 25.9047 47.0444 26.1206 46.8477 26.2776C46.6509 26.4403 46.4457 26.5216 46.2321 26.5216ZM44.0397 22.8202C44.2027 22.708 44.3489 22.5818 44.4782 22.4416C44.6131 22.2958 44.7002 22.15 44.7396 22.0042C44.7452 21.9873 44.748 21.9705 44.748 21.9537C44.748 21.9369 44.748 21.9228 44.748 21.9116C44.748 21.8163 44.7171 21.7462 44.6553 21.7013C44.5934 21.6508 44.5231 21.6256 44.4444 21.6256C44.3545 21.6256 44.2617 21.6621 44.1662 21.735C44.0762 21.8023 44.0116 21.9172 43.9722 22.0799C43.9666 22.1135 43.961 22.1472 43.9554 22.1808C43.9554 22.2145 43.9554 22.2481 43.9554 22.2818C43.9554 22.3883 43.9638 22.4921 43.9807 22.593C44.0031 22.6884 44.0228 22.7641 44.0397 22.8202ZM43.1543 25.5205C43.4635 25.5205 43.7474 25.4701 44.006 25.3691C44.124 25.3242 44.2364 25.2569 44.3433 25.1672C44.4557 25.0775 44.5569 24.9793 44.6468 24.8728C44.5962 24.7774 44.5316 24.6541 44.4529 24.5026C44.3742 24.3512 44.2898 24.183 44.1999 23.9979C44.0875 24.0035 43.9582 24.0231 43.812 24.0568C43.6658 24.0904 43.5394 24.1465 43.4325 24.225C43.3314 24.3035 43.2864 24.4157 43.2976 24.5615C43.2976 24.6008 43.3061 24.6512 43.3229 24.7129C43.3454 24.769 43.3595 24.8055 43.3651 24.8223L43.2976 24.8728C43.2583 24.7999 43.2049 24.7101 43.1374 24.6036C43.0756 24.497 43.0418 24.4185 43.0362 24.368C43.0306 24.3176 43.0306 24.2559 43.0362 24.183C43.0475 24.11 43.0868 24.0456 43.1543 23.9895C43.2274 23.9278 43.3286 23.8885 43.4578 23.8717C43.5871 23.8493 43.7221 23.8381 43.8626 23.8381C43.9076 23.8381 43.9525 23.8409 43.9975 23.8465C44.0425 23.8465 44.0847 23.8465 44.124 23.8465C44.0734 23.7231 44.02 23.5969 43.9638 23.4679C43.9132 23.3389 43.8626 23.2099 43.812 23.0809L43.7361 23.1314C43.5169 23.266 43.2864 23.4146 43.0447 23.5773C42.8085 23.7399 42.609 23.9222 42.446 24.1241C42.3729 24.2138 42.3082 24.3232 42.252 24.4522C42.2014 24.5811 42.1761 24.7101 42.1761 24.8391C42.1761 24.912 42.1874 24.9877 42.2098 25.0663C42.238 25.1392 42.2801 25.2065 42.3363 25.2682C42.4319 25.3579 42.55 25.4224 42.6905 25.4616C42.8367 25.5009 42.9913 25.5205 43.1543 25.5205ZM44.8914 24.5447C44.942 24.4662 44.9897 24.3821 45.0347 24.2923C45.0797 24.197 45.1162 24.1129 45.1443 24.0399C45.0544 24.0287 44.9644 24.0203 44.8745 24.0147C44.7845 24.0091 44.6918 24.0035 44.5962 23.9979C44.6581 24.1044 44.7115 24.2054 44.7564 24.3007C44.807 24.3961 44.852 24.4774 44.8914 24.5447ZM47.9298 25.6635C47.8568 25.6635 47.7696 25.6495 47.6684 25.6215C47.5673 25.599 47.5167 25.5374 47.5167 25.4364C47.5167 25.3971 47.5251 25.3523 47.542 25.3018C47.5588 25.2513 47.5757 25.2065 47.5925 25.1672C47.6488 25.0214 47.7078 24.8728 47.7696 24.7214C47.8315 24.5699 47.8961 24.4157 47.9636 24.2587C47.8905 24.3428 47.8202 24.4213 47.7528 24.4942C47.6909 24.5615 47.646 24.612 47.6178 24.6456C47.601 24.6681 47.5869 24.6793 47.5757 24.6793C47.5644 24.6793 47.5588 24.6653 47.5588 24.6372C47.5588 24.5924 47.5729 24.5503 47.601 24.511C47.6797 24.4101 47.7696 24.3035 47.8708 24.1914C47.972 24.0792 48.0704 23.9614 48.166 23.8381C48.4021 23.3445 48.6663 22.8678 48.9586 22.4079C49.2509 21.9425 49.5798 21.5303 49.9452 21.1713C50.0576 21.0648 50.1841 20.9554 50.3247 20.8432C50.4652 20.7311 50.6142 20.6357 50.7716 20.5572C50.9346 20.4787 51.0948 20.4395 51.2522 20.4395C51.3365 20.4395 51.4124 20.4619 51.4799 20.5068C51.553 20.5516 51.5923 20.6217 51.598 20.7171V20.961C51.598 20.9835 51.5811 20.9947 51.5474 20.9947C51.5305 20.9947 51.5221 20.9891 51.5221 20.9778C51.5221 20.8881 51.4827 20.8292 51.404 20.8012C51.3253 20.7675 51.2466 20.7507 51.1679 20.7507C50.8587 20.7507 50.5804 20.832 50.3331 20.9947C50.0857 21.1517 49.8665 21.3592 49.6754 21.6172C49.4842 21.8696 49.3128 22.15 49.161 22.4584C49.0092 22.7613 48.8715 23.0613 48.7478 23.3585C48.6297 23.6502 48.5173 23.911 48.4105 24.1409C48.4105 24.1409 48.4105 24.1465 48.4105 24.1577C48.4105 24.1689 48.4133 24.1745 48.4189 24.1745C48.4245 24.1745 48.4695 24.1325 48.5538 24.0484C48.6438 23.9586 48.7534 23.8549 48.8827 23.7371C49.0176 23.6193 49.1582 23.5184 49.3043 23.4343C49.4505 23.3445 49.5854 23.2997 49.7091 23.2997C49.7709 23.2997 49.8103 23.3221 49.8271 23.367C49.844 23.4062 49.8524 23.4511 49.8524 23.5016V23.5773C49.8243 23.7848 49.7513 24.0091 49.6332 24.2503C49.5208 24.4914 49.3746 24.7214 49.1947 24.9401C49.0204 25.1532 48.8237 25.327 48.6044 25.4616C48.3908 25.5962 48.166 25.6635 47.9298 25.6635ZM48.0648 25.5205C48.1547 25.5205 48.2503 25.4869 48.3515 25.4196C48.4583 25.3467 48.5398 25.2822 48.596 25.2261C48.6635 25.1644 48.745 25.0691 48.8405 24.9401C48.9361 24.8055 49.0289 24.6597 49.1188 24.5026C49.2088 24.3456 49.2847 24.1942 49.3465 24.0484C49.4083 23.9025 49.4393 23.7848 49.4393 23.695C49.4393 23.667 49.4336 23.6418 49.4224 23.6193C49.4111 23.5969 49.3915 23.5857 49.3634 23.5857C49.3128 23.5857 49.2453 23.6165 49.161 23.6782C49.0823 23.7399 48.9951 23.8156 48.8996 23.9053C48.8096 23.9895 48.7253 24.0736 48.6466 24.1577C48.5735 24.2362 48.5201 24.2951 48.4864 24.3344C48.4245 24.4017 48.3458 24.4998 48.2503 24.6288C48.1547 24.7578 48.0676 24.8896 47.9889 25.0242C47.9158 25.1532 47.8793 25.2625 47.8793 25.3523C47.8793 25.4644 47.9411 25.5205 48.0648 25.5205ZM50.3208 25.6551C50.0903 25.6551 49.9301 25.6103 49.8401 25.5205C49.7502 25.4308 49.7052 25.3214 49.7052 25.1924C49.7052 25.0298 49.7474 24.8559 49.8317 24.6709C49.9217 24.4858 50.006 24.3288 50.0847 24.1998C50.1746 24.0652 50.2955 23.925 50.4473 23.7792C50.5991 23.6333 50.7649 23.51 50.9448 23.409C51.1247 23.3081 51.299 23.2576 51.4676 23.2576C51.6138 23.2576 51.715 23.2941 51.7712 23.367C51.8274 23.4343 51.8555 23.5156 51.8555 23.6109C51.8555 23.7848 51.8021 23.9278 51.6953 24.0399C51.5941 24.1521 51.4676 24.2446 51.3158 24.3176C51.164 24.3849 51.0179 24.4409 50.8773 24.4858C50.793 24.5082 50.6946 24.5307 50.5822 24.5531C50.4698 24.5755 50.363 24.5868 50.2618 24.5868C50.2224 24.6877 50.1915 24.7858 50.169 24.8812C50.1465 24.9765 50.1353 25.0635 50.1353 25.142C50.1353 25.2373 50.1578 25.3158 50.2027 25.3775C50.2533 25.4392 50.3348 25.4701 50.4473 25.4701C50.4923 25.4701 50.5457 25.4644 50.6075 25.4532C50.6693 25.442 50.7368 25.4252 50.8099 25.4028C50.9785 25.3467 51.1444 25.2569 51.3074 25.1336C51.4704 25.0102 51.6194 24.8784 51.7543 24.7382C51.8948 24.5924 52.0017 24.4718 52.0747 24.3764C52.0916 24.3933 52.1 24.4129 52.1 24.4353C52.1 24.4634 52.0804 24.5082 52.041 24.5699C51.9286 24.727 51.7824 24.8896 51.6025 25.0578C51.4226 25.2261 51.2231 25.3691 51.0038 25.4869C50.7846 25.599 50.5569 25.6551 50.3208 25.6551ZM50.3292 24.4185C50.4023 24.4241 50.4838 24.4241 50.5738 24.4185C50.6693 24.4073 50.7621 24.3877 50.852 24.3596C51.0825 24.2923 51.2484 24.1858 51.3496 24.0399C51.4564 23.8885 51.5098 23.7539 51.5098 23.6362C51.5098 23.5689 51.4957 23.5128 51.4676 23.4679C51.4395 23.423 51.3945 23.4006 51.3327 23.4006C51.1697 23.4006 51.0235 23.4623 50.8942 23.5857C50.7649 23.7035 50.6525 23.8409 50.5569 23.9979C50.4613 24.1549 50.3854 24.2951 50.3292 24.4185ZM51.0716 28.5322C50.858 28.5322 50.6528 28.4817 50.4561 28.3807C50.2537 28.2854 50.1047 28.1368 50.0091 27.9349C49.9754 27.862 49.9529 27.7835 49.9417 27.6993C49.9304 27.6208 49.9248 27.5423 49.9248 27.4638V27.3712C49.9248 27.3264 49.9304 27.2843 49.9417 27.2451C49.9529 27.2114 49.981 27.1946 50.026 27.1946C50.0373 27.1946 50.0429 27.2002 50.0429 27.2114C50.0429 27.2451 50.0401 27.2787 50.0344 27.3124C50.0288 27.346 50.026 27.3825 50.026 27.4217C50.026 27.6797 50.1103 27.876 50.279 28.0106C50.442 28.1452 50.6472 28.2125 50.8946 28.2125C50.9957 28.2125 51.0997 28.2013 51.2066 28.1788C51.3134 28.1564 51.4146 28.1256 51.5101 28.0863C51.8643 27.9349 52.1707 27.719 52.4293 27.4385C52.6935 27.1637 52.924 26.8525 53.1207 26.5048C53.3175 26.1571 53.4945 25.8037 53.652 25.4448C53.7419 25.2317 53.8206 25.0242 53.8881 24.8223C53.9611 24.6204 54.0258 24.4381 54.082 24.2755C54.0258 24.354 53.9527 24.4493 53.8628 24.5615C53.7728 24.6737 53.6829 24.783 53.5929 24.8896C53.503 24.9905 53.4243 25.0719 53.3568 25.1336C53.2163 25.2682 53.0645 25.3831 52.9015 25.4785C52.7441 25.5682 52.581 25.6131 52.4124 25.6131C52.3562 25.6131 52.3084 25.6018 52.269 25.5794C52.2297 25.557 52.21 25.5149 52.21 25.4532C52.21 25.3747 52.2297 25.2822 52.269 25.1756C52.314 25.0691 52.3618 24.9625 52.4124 24.8559C52.463 24.7494 52.5051 24.6625 52.5389 24.5952C52.6063 24.4662 52.671 24.3372 52.7328 24.2082C52.7947 24.0792 52.8481 23.9698 52.893 23.8801C52.938 23.796 52.9605 23.7399 52.9605 23.7119C52.9605 23.667 52.9268 23.667 52.8593 23.7119C52.7975 23.7567 52.7384 23.8016 52.6822 23.8465C52.5585 23.9642 52.4293 24.1044 52.2943 24.2671C52.1594 24.4241 52.0554 24.5503 51.9823 24.6456C51.9655 24.6681 51.9514 24.6793 51.9402 24.6793C51.9289 24.6793 51.9233 24.6653 51.9233 24.6372C51.9233 24.5924 51.9374 24.5503 51.9655 24.511C52.0442 24.3989 52.1369 24.2755 52.2437 24.1409C52.3505 24.0063 52.4602 23.8773 52.5726 23.7539C52.6794 23.6418 52.789 23.5324 52.9015 23.4258C53.0139 23.3193 53.1573 23.266 53.3315 23.266C53.4496 23.266 53.5086 23.3109 53.5086 23.4006C53.5086 23.4791 53.4749 23.5689 53.4074 23.6698C53.3681 23.7315 53.3062 23.8352 53.2219 23.9811C53.1376 24.1269 53.0504 24.2867 52.9605 24.4606C52.8762 24.6288 52.8031 24.7858 52.7413 24.9317C52.6794 25.0775 52.6485 25.184 52.6485 25.2513C52.6485 25.3298 52.6878 25.3691 52.7666 25.3691C52.8284 25.3691 52.9043 25.3383 52.9942 25.2766C53.0842 25.2093 53.1769 25.1308 53.2725 25.041C53.4355 24.884 53.5845 24.7101 53.7194 24.5195C53.86 24.3288 53.9808 24.1465 54.082 23.9726C54.0989 23.9446 54.127 23.8941 54.1663 23.8212C54.2113 23.7483 54.2563 23.6782 54.3013 23.6109C54.3518 23.5436 54.3912 23.5044 54.4193 23.4931C54.4474 23.4819 54.5036 23.4511 54.588 23.4006C54.6723 23.3501 54.7566 23.3165 54.8409 23.2997C54.9196 23.2828 54.9787 23.2744 55.018 23.2744C55.0798 23.2744 55.1108 23.2912 55.1108 23.3249C55.1108 23.3698 55.0855 23.3922 55.0349 23.3922C54.973 23.3922 54.9168 23.409 54.8662 23.4427C54.8156 23.4707 54.7763 23.5072 54.7482 23.552C54.6976 23.6249 54.6245 23.7567 54.5289 23.9474C54.439 24.1381 54.3378 24.3596 54.2254 24.612C54.1185 24.8588 54.0117 25.1111 53.9049 25.3691C53.7981 25.6215 53.6997 25.8542 53.6098 26.0673C53.4749 26.387 53.3203 26.6983 53.146 27.0011C52.9717 27.3096 52.7665 27.5844 52.5304 27.8255C52.3 28.0723 52.0245 28.2658 51.7041 28.406C51.5129 28.4901 51.3021 28.5322 51.0716 28.5322ZM54.9737 25.6046C54.8838 25.6046 54.8023 25.5878 54.7292 25.5542C54.6617 25.5149 54.628 25.4336 54.628 25.3102C54.628 25.1139 54.6786 24.9176 54.7798 24.7214C54.881 24.5195 54.985 24.3428 55.0918 24.1914C55.1874 24.0624 55.2942 23.9418 55.4122 23.8296C55.5359 23.7119 55.668 23.6109 55.8085 23.5268C55.8985 23.4707 56.0194 23.4118 56.1711 23.3501C56.3285 23.2828 56.4607 23.2492 56.5675 23.2492C56.6574 23.2492 56.7361 23.2744 56.8036 23.3249C56.871 23.3698 56.9048 23.4539 56.9048 23.5773C56.9048 23.7679 56.8542 23.9642 56.753 24.1661C56.6574 24.3624 56.5562 24.5363 56.4494 24.6877C56.3988 24.755 56.3482 24.8195 56.2976 24.8812C56.247 24.9373 56.1908 24.9962 56.129 25.0578C56.337 25.0578 56.5281 24.999 56.7024 24.8812C56.8767 24.7578 57.0284 24.6092 57.1577 24.4353L57.1746 24.4185C57.1915 24.4185 57.1999 24.4353 57.1999 24.469C57.1999 24.5082 57.1887 24.5447 57.1662 24.5783C57.0537 24.7354 56.9132 24.8756 56.7445 24.999C56.5759 25.1167 56.3848 25.1756 56.1711 25.1756C56.1487 25.1756 56.1262 25.1756 56.1037 25.1756C56.0812 25.1756 56.0587 25.1728 56.0362 25.1672C55.7214 25.4588 55.3673 25.6046 54.9737 25.6046ZM55.193 25.4616C55.2717 25.4616 55.356 25.4336 55.446 25.3775C55.5415 25.3214 55.6146 25.2682 55.6652 25.2177C55.7608 25.1223 55.8479 25.0214 55.9266 24.9148C56.0053 24.8027 56.0784 24.6905 56.1458 24.5783C56.2246 24.4437 56.3033 24.2839 56.382 24.0988C56.4607 23.9138 56.5 23.7399 56.5 23.5773C56.5 23.4483 56.455 23.3838 56.3651 23.3838C56.292 23.3838 56.2021 23.4146 56.0953 23.4763C55.9941 23.538 55.9182 23.5941 55.8676 23.6446C55.6764 23.8409 55.5162 24.054 55.3869 24.2839C55.3138 24.4129 55.2351 24.5643 55.1508 24.7382C55.0665 24.912 55.0243 25.0719 55.0243 25.2177C55.0243 25.2401 55.0243 25.2625 55.0243 25.285C55.03 25.3018 55.0356 25.3214 55.0412 25.3439C55.0637 25.4224 55.1143 25.4616 55.193 25.4616ZM57.1208 25.714C57.0984 25.714 57.0984 25.6888 57.1208 25.6383C57.149 25.5878 57.1743 25.5317 57.1967 25.4701C57.2248 25.4084 57.253 25.3411 57.2811 25.2682C57.3373 25.1336 57.3991 24.9821 57.4666 24.8139C57.534 24.6456 57.5987 24.483 57.6605 24.326C57.7224 24.1633 57.7758 24.0259 57.8207 23.9138C57.8713 23.796 57.9051 23.7203 57.9219 23.6866C57.8432 23.7708 57.7477 23.8773 57.6352 24.0063C57.5284 24.1297 57.4272 24.2503 57.3317 24.368C57.2361 24.4858 57.163 24.5783 57.1124 24.6456C57.0955 24.6681 57.0815 24.6793 57.0703 24.6793C57.059 24.6793 57.0534 24.6653 57.0534 24.6372C57.0534 24.5924 57.0674 24.5503 57.0956 24.511C57.2024 24.3764 57.3204 24.225 57.4497 24.0568C57.5846 23.8885 57.7055 23.7343 57.8123 23.5941C57.9191 23.4483 57.9866 23.3529 58.0147 23.3081C58.0765 23.2969 58.1665 23.28 58.2845 23.2576C58.4082 23.2352 58.4925 23.2043 58.5375 23.1651C58.5544 23.1482 58.5712 23.1398 58.5881 23.1398C58.5993 23.1398 58.605 23.151 58.605 23.1735C58.6106 23.1903 58.605 23.2099 58.5881 23.2324C58.5544 23.2716 58.4953 23.3642 58.411 23.51C58.3323 23.6502 58.2452 23.8072 58.1496 23.9811C58.0597 24.1549 57.9753 24.3119 57.8966 24.4522C57.9641 24.3624 58.0372 24.2755 58.1159 24.1914C58.1946 24.1072 58.2705 24.0259 58.3436 23.9474C58.411 23.8801 58.5038 23.796 58.6218 23.695C58.7399 23.5941 58.8636 23.5016 58.9928 23.4174C59.1221 23.3333 59.2346 23.2856 59.3301 23.2744C59.3526 23.2688 59.3723 23.266 59.3892 23.266C59.4117 23.266 59.4285 23.266 59.4398 23.266C59.5634 23.266 59.6253 23.3109 59.6253 23.4006C59.6253 23.4679 59.5887 23.5576 59.5157 23.6698C59.4763 23.7315 59.4145 23.8352 59.3301 23.9811C59.2514 24.1213 59.1699 24.2755 59.0856 24.4437C59.0069 24.6064 58.9366 24.7606 58.8748 24.9064C58.8186 25.0466 58.7905 25.1504 58.7905 25.2177C58.7905 25.2962 58.8298 25.3355 58.9085 25.3355C59.0041 25.3355 59.1081 25.2878 59.2205 25.1924C59.3386 25.0971 59.4651 24.9765 59.6 24.8307C59.7349 24.6793 59.8698 24.5195 60.0047 24.3512C60.016 24.3624 60.0216 24.3821 60.0216 24.4101C60.0216 24.4493 60.0075 24.4886 59.9794 24.5279C59.957 24.5615 59.9345 24.5924 59.912 24.6204C59.8558 24.6933 59.7799 24.7858 59.6843 24.898C59.5944 25.0046 59.5016 25.1111 59.406 25.2177C59.3105 25.3186 59.2233 25.3999 59.1446 25.4616C59.0884 25.5009 59.0153 25.543 58.9254 25.5878C58.8354 25.6327 58.7455 25.6551 58.6556 25.6551C58.5544 25.6551 58.4841 25.6299 58.4447 25.5794C58.4054 25.5233 58.3857 25.456 58.3857 25.3775C58.3857 25.2878 58.4026 25.1924 58.4363 25.0915C58.47 24.9905 58.5066 24.8952 58.5459 24.8055C58.5909 24.7101 58.6246 24.64 58.6471 24.5952C58.7483 24.3989 58.8411 24.2138 58.9254 24.0399C59.0097 23.8661 59.0687 23.7427 59.1025 23.6698C59.1193 23.6362 59.1278 23.6081 59.1278 23.5857C59.1278 23.5464 59.0968 23.5436 59.035 23.5773C58.9732 23.6109 58.8973 23.6614 58.8073 23.7287C58.723 23.796 58.6443 23.8633 58.5712 23.9306C58.4981 23.9923 58.4504 24.0343 58.4279 24.0568C58.2199 24.2755 58.0372 24.5195 57.8798 24.7886C57.728 25.0522 57.5987 25.3242 57.4919 25.6046C57.4188 25.6103 57.3457 25.6299 57.2726 25.6635C57.1996 25.6972 57.149 25.714 57.1208 25.714ZM61.0005 25.6131C60.9443 25.6131 60.8965 25.6018 60.8571 25.5794C60.8178 25.557 60.7981 25.5149 60.7981 25.4532C60.7981 25.3747 60.8178 25.285 60.8571 25.184C60.8965 25.0831 60.9414 24.9849 60.992 24.8896C61.0426 24.7887 61.0876 24.7073 61.127 24.6456C60.9302 24.8531 60.725 25.0494 60.5114 25.2345C60.4046 25.3242 60.2865 25.4084 60.1572 25.4869C60.0279 25.5654 59.8902 25.6046 59.744 25.6046C59.6878 25.6046 59.6485 25.5878 59.626 25.5542C59.6035 25.5149 59.5923 25.47 59.5923 25.4196C59.5923 25.3915 59.5951 25.3719 59.6007 25.3607C59.6288 25.142 59.6991 24.9148 59.8115 24.6793C59.9239 24.4437 60.0617 24.2222 60.2247 24.0147C60.3877 23.8072 60.5536 23.639 60.7222 23.51C60.8515 23.4146 60.9752 23.3557 61.0932 23.3333C61.2113 23.3053 61.3406 23.2912 61.4811 23.2912H61.7594C61.8493 23.1398 61.9421 22.9716 62.0377 22.7865C62.1388 22.5958 62.2372 22.4079 62.3328 22.2229C62.434 22.0378 62.5267 21.8752 62.6111 21.735C62.8416 21.3424 63.0945 21.0283 63.37 20.7928C63.6511 20.5572 63.9631 20.4395 64.306 20.4395C64.3791 20.4395 64.4465 20.4619 64.5084 20.5068C64.5702 20.546 64.5983 20.6077 64.5927 20.6918L64.5758 20.9947C64.5758 21.0003 64.5702 21.0087 64.559 21.0199C64.5477 21.0255 64.5393 21.0283 64.5337 21.0283C64.528 21.0283 64.5196 21.0227 64.5084 21.0115C64.4915 20.9105 64.4409 20.8348 64.3566 20.7844C64.2723 20.7283 64.1683 20.7002 64.0446 20.7002C64.0052 20.7002 63.9603 20.703 63.9097 20.7086C63.8647 20.7143 63.8197 20.7255 63.7747 20.7423C63.6173 20.7984 63.4684 20.9133 63.3278 21.0872C63.1873 21.2555 63.0355 21.4798 62.8725 21.7602C62.8163 21.8668 62.7432 22.007 62.6532 22.1808C62.5633 22.3491 62.4677 22.5313 62.3665 22.7276C62.271 22.9239 62.1782 23.1146 62.0883 23.2997C62.0039 23.4847 61.9309 23.6418 61.869 23.7708C61.8409 23.8381 61.7931 23.9418 61.7257 24.082C61.6582 24.2166 61.5851 24.3652 61.5064 24.5279C61.4333 24.6849 61.3687 24.8307 61.3125 24.9653C61.2619 25.0999 61.2366 25.1952 61.2366 25.2513C61.2366 25.3298 61.2703 25.3691 61.3378 25.3691C61.4052 25.3691 61.4952 25.3298 61.6076 25.2513C61.72 25.1672 61.8353 25.0663 61.9533 24.9485C62.077 24.8251 62.1866 24.7073 62.2822 24.5952C62.3834 24.483 62.4537 24.3989 62.493 24.3428C62.5099 24.3596 62.5183 24.3792 62.5183 24.4017C62.5183 24.4409 62.5014 24.4802 62.4677 24.5195C62.4396 24.5587 62.4143 24.5924 62.3918 24.6204C62.2906 24.755 62.1641 24.9008 62.0124 25.0578C61.8662 25.2093 61.706 25.3411 61.5317 25.4532C61.3574 25.5598 61.1804 25.6131 61.0005 25.6131ZM60.0898 25.3186C60.1572 25.3186 60.25 25.271 60.368 25.1756C60.4917 25.0747 60.6238 24.9513 60.7644 24.8055C60.9049 24.6541 61.037 24.497 61.1607 24.3344C61.2844 24.1661 61.3855 24.0147 61.4643 23.8801C61.5486 23.7399 61.5907 23.6334 61.5907 23.5604C61.5907 23.4988 61.5711 23.4567 61.5317 23.4343C61.498 23.4118 61.453 23.4006 61.3968 23.4006C61.3068 23.4006 61.2085 23.4343 61.1017 23.5016C61.0005 23.5632 60.919 23.6249 60.8571 23.6866C60.7897 23.7483 60.7081 23.8465 60.6126 23.9811C60.5226 24.1101 60.4327 24.2531 60.3427 24.4101C60.2528 24.5671 60.1769 24.7185 60.1151 24.8644C60.0532 25.0102 60.0223 25.1279 60.0223 25.2177C60.0223 25.285 60.0448 25.3186 60.0898 25.3186Z" fill="white"/>
</svg>
