<svg width="35" height="34" viewBox="0 0 35 34" fill="none" xmlns="http://www.w3.org/2000/svg">
<path d="M29.1667 10.4272C28.316 10.7877 27.3969 11.0329 26.4095 11.1627C27.4425 10.5858 28.1489 9.74213 28.5286 8.63162C27.5412 9.17966 26.5234 9.54743 25.4753 9.73491C24.5486 8.78306 23.3865 8.30713 21.9889 8.30713C20.6673 8.30713 19.5394 8.75061 18.6051 9.63756C17.6709 10.5245 17.2038 11.5954 17.2038 12.8501C17.2038 13.2683 17.2418 13.6145 17.3177 13.8885C15.3581 13.7875 13.52 13.3188 11.8034 12.4823C10.0868 11.6458 8.62847 10.5281 7.42839 9.12919C6.98785 9.85029 6.76758 10.6147 6.76758 11.4223C6.76758 13.0664 7.45877 14.3284 8.84115 15.2081C8.12717 15.1937 7.36762 15.0062 6.5625 14.6456V14.6889C6.5625 15.7706 6.94227 16.7332 7.70182 17.5769C8.46137 18.4206 9.39562 18.9434 10.5046 19.1453C10.064 19.2607 9.67665 19.3184 9.34245 19.3184C9.14497 19.3184 8.84874 19.2896 8.45378 19.2319C8.77279 20.1405 9.33865 20.8904 10.1514 21.4817C10.9641 22.073 11.8869 22.3759 12.9199 22.3903C11.1578 23.6883 9.17535 24.3373 6.97266 24.3373C6.57769 24.3373 6.19792 24.3157 5.83333 24.2724C8.0816 25.6281 10.5273 26.3059 13.1706 26.3059C14.872 26.3059 16.467 26.0499 17.9557 25.5379C19.4444 25.0259 20.7205 24.3409 21.7839 23.4828C22.8472 22.6247 23.7625 21.6367 24.5296 20.519C25.2968 19.4013 25.8664 18.2331 26.2386 17.0145C26.6108 15.7958 26.7969 14.5807 26.7969 13.3693C26.7969 13.1097 26.7893 12.915 26.7741 12.7852C27.7311 12.1362 28.5286 11.3502 29.1667 10.4272ZM35 6.23035V26.9982C35 28.7144 34.3582 30.1818 33.0745 31.4005C31.7909 32.6192 30.2452 33.2285 28.4375 33.2285H6.5625C4.75477 33.2285 3.20909 32.6192 1.92546 31.4005C0.641819 30.1818 0 28.7144 0 26.9982V6.23035C0 4.51412 0.641819 3.04667 1.92546 1.828C3.20909 0.609334 4.75477 0 6.5625 0H28.4375C30.2452 0 31.7909 0.609334 33.0745 1.828C34.3582 3.04667 35 4.51412 35 6.23035Z" fill="black"/>
</svg>
